<svg width="1440" height="820" viewBox="0 0 1440 820" fill="none" xmlns="http://www.w3.org/2000/svg">
<rect width="1440" height="820" fill="#202024"/>
<circle cx="881" cy="-137" r="559" transform="rotate(-180 881 -137)" fill="url(#paint0_radial_61495_2)"/>
<circle cx="559" cy="-137" r="559" transform="rotate(-180 559 -137)" fill="url(#paint1_radial_61495_2)"/>
<rect x="541" y="140" width="358" height="540" fill="#393939"/>
<mask id="mask0_61495_2" style="mask-type:alpha" maskUnits="userSpaceOnUse" x="541" y="140" width="358" height="540">
<rect x="541" y="140" width="358" height="540" fill="#DFDFDF"/>
</mask>
<g mask="url(#mask0_61495_2)">
<path d="M899 201.492V-256.824L719.5 -360L540 -256.824V201.492L719.5 304.674L899 201.492Z" fill="url(#paint2_linear_61495_2)"/>
<g style="mix-blend-mode:luminosity" opacity="0.4">
<path d="M541.801 99.3496V202.159L631.101 253.569L720.4 202.159V99.3496L631.101 47.9399L541.801 99.3496Z" fill="url(#paint3_linear_61495_2)"/>
<path d="M541.801 -3.46505V99.3445L631.101 150.754L720.4 99.3445V-3.46505L631.101 -54.8747L541.801 -3.46505Z" fill="url(#paint4_linear_61495_2)"/>
<path d="M720.4 202.159V99.3492L809.7 47.9395L899 99.3492V202.159L809.7 253.568L720.4 202.159Z" fill="url(#paint5_linear_61495_2)"/>
<path d="M899 -3.46505V99.3445L809.7 150.754L720.4 99.3445V-3.46505L809.7 -54.8747L899 -3.46505Z" fill="url(#paint6_linear_61495_2)"/>
<path d="M809.7 253.59V150.781L720.4 99.3711L631.101 150.781V253.59L720.4 305L809.7 253.59Z" fill="url(#paint7_linear_61495_2)"/>
</g>
</g>
<rect x="680" y="156" width="80" height="8" fill="#121214"/>
<g filter="url(#filter0_d_61495_2)">
<rect x="688" width="64" height="158" fill="url(#paint8_linear_61495_2)" shape-rendering="crispEdges"/>
</g>
<defs>
<filter id="filter0_d_61495_2" x="684" y="0" width="72" height="166" filterUnits="userSpaceOnUse" color-interpolation-filters="sRGB">
<feFlood flood-opacity="0" result="BackgroundImageFix"/>
<feColorMatrix in="SourceAlpha" type="matrix" values="0 0 0 0 0 0 0 0 0 0 0 0 0 0 0 0 0 0 127 0" result="hardAlpha"/>
<feOffset dy="4"/>
<feGaussianBlur stdDeviation="2"/>
<feComposite in2="hardAlpha" operator="out"/>
<feColorMatrix type="matrix" values="0 0 0 0 0 0 0 0 0 0 0 0 0 0 0 0 0 0 0.25 0"/>
<feBlend mode="normal" in2="BackgroundImageFix" result="effect1_dropShadow_61495_2"/>
<feBlend mode="normal" in="SourceGraphic" in2="effect1_dropShadow_61495_2" result="shape"/>
</filter>
<radialGradient id="paint0_radial_61495_2" cx="0" cy="0" r="1" gradientUnits="userSpaceOnUse" gradientTransform="translate(881 -137) rotate(90) scale(559)">
<stop stop-color="#FF007A"/>
<stop offset="1" stop-color="#121214" stop-opacity="0"/>
</radialGradient>
<radialGradient id="paint1_radial_61495_2" cx="0" cy="0" r="1" gradientUnits="userSpaceOnUse" gradientTransform="translate(559 -137) rotate(90) scale(559)">
<stop stop-color="#AD37D7"/>
<stop offset="1" stop-color="#121214" stop-opacity="0"/>
</radialGradient>
<linearGradient id="paint2_linear_61495_2" x1="540" y1="-344.234" x2="979.976" y2="-283.679" gradientUnits="userSpaceOnUse">
<stop stop-color="#6B277F"/>
<stop offset="1" stop-color="#FF008E"/>
</linearGradient>
<linearGradient id="paint3_linear_61495_2" x1="631.101" y1="248.84" x2="542.185" y2="97.1039" gradientUnits="userSpaceOnUse">
<stop/>
<stop offset="1" stop-color="#FF008E" stop-opacity="0"/>
</linearGradient>
<linearGradient id="paint4_linear_61495_2" x1="631.101" y1="146.026" x2="542.185" y2="-5.71074" gradientUnits="userSpaceOnUse">
<stop/>
<stop offset="1" stop-color="#FF008E" stop-opacity="0"/>
</linearGradient>
<linearGradient id="paint5_linear_61495_2" x1="899" y1="207.937" x2="720.676" y2="100.328" gradientUnits="userSpaceOnUse">
<stop stop-color="#FAFF00" stop-opacity="0.91"/>
<stop offset="1" stop-color="#FFCD1E"/>
</linearGradient>
<linearGradient id="paint6_linear_61495_2" x1="809.7" y1="146.026" x2="898.615" y2="-5.71073" gradientUnits="userSpaceOnUse">
<stop/>
<stop offset="1" stop-color="#FF008E" stop-opacity="0"/>
</linearGradient>
<linearGradient id="paint7_linear_61495_2" x1="720.4" y1="104.099" x2="809.316" y2="255.836" gradientUnits="userSpaceOnUse">
<stop/>
<stop offset="1" stop-color="#FF008E" stop-opacity="0"/>
</linearGradient>
<linearGradient id="paint8_linear_61495_2" x1="618.5" y1="19.5" x2="833" y2="96" gradientUnits="userSpaceOnUse">
<stop offset="0.270635" stop-color="#F94DAF"/>
<stop offset="0.477893" stop-color="#E6DBE9" stop-opacity="0.47"/>
<stop offset="0.723958" stop-color="#832081"/>
</linearGradient>
</defs>
</svg>
