<svg version="1.1" baseProfile="full" shape-rendering="crispEdges" viewBox="0 0 660 660" xmlns="http://www.w3.org/2000/svg"><rect x="0" y="0" width="660" height="660" fill="#FFFFFF" />
<rect x="0" y="0" width="26.4" height="26.4" fill="#000000" />
<rect x="0" y="26.4" width="26.4" height="26.4" fill="#000000" />
<rect x="0" y="52.8" width="26.4" height="26.4" fill="#000000" />
<rect x="0" y="79.19999999999999" width="26.4" height="26.4" fill="#000000" />
<rect x="0" y="105.6" width="26.4" height="26.4" fill="#000000" />
<rect x="0" y="132" width="26.4" height="26.4" fill="#000000" />
<rect x="0" y="158.39999999999998" width="26.4" height="26.4" fill="#000000" />
<rect x="0" y="211.2" width="26.4" height="26.4" fill="#000000" />
<rect x="0" y="237.6" width="26.4" height="26.4" fill="#000000" />
<rect x="0" y="290.4" width="26.4" height="26.4" fill="#000000" />
<rect x="0" y="316.79999999999995" width="26.4" height="26.4" fill="#000000" />
<rect x="0" y="396" width="26.4" height="26.4" fill="#000000" />
<rect x="0" y="475.2" width="26.4" height="26.4" fill="#000000" />
<rect x="0" y="501.59999999999997" width="26.4" height="26.4" fill="#000000" />
<rect x="0" y="528" width="26.4" height="26.4" fill="#000000" />
<rect x="0" y="554.4" width="26.4" height="26.4" fill="#000000" />
<rect x="0" y="580.8" width="26.4" height="26.4" fill="#000000" />
<rect x="0" y="607.1999999999999" width="26.4" height="26.4" fill="#000000" />
<rect x="0" y="633.5999999999999" width="26.4" height="26.4" fill="#000000" />
<rect x="26.4" y="0" width="26.4" height="26.4" fill="#000000" />
<rect x="26.4" y="158.39999999999998" width="26.4" height="26.4" fill="#000000" />
<rect x="26.4" y="211.2" width="26.4" height="26.4" fill="#000000" />
<rect x="26.4" y="264" width="26.4" height="26.4" fill="#000000" />
<rect x="26.4" y="343.2" width="26.4" height="26.4" fill="#000000" />
<rect x="26.4" y="369.59999999999997" width="26.4" height="26.4" fill="#000000" />
<rect x="26.4" y="475.2" width="26.4" height="26.4" fill="#000000" />
<rect x="26.4" y="633.5999999999999" width="26.4" height="26.4" fill="#000000" />
<rect x="52.8" y="0" width="26.4" height="26.4" fill="#000000" />
<rect x="52.8" y="52.8" width="26.4" height="26.4" fill="#000000" />
<rect x="52.8" y="79.19999999999999" width="26.4" height="26.4" fill="#000000" />
<rect x="52.8" y="105.6" width="26.4" height="26.4" fill="#000000" />
<rect x="52.8" y="158.39999999999998" width="26.4" height="26.4" fill="#000000" />
<rect x="52.8" y="211.2" width="26.4" height="26.4" fill="#000000" />
<rect x="52.8" y="343.2" width="26.4" height="26.4" fill="#000000" />
<rect x="52.8" y="369.59999999999997" width="26.4" height="26.4" fill="#000000" />
<rect x="52.8" y="475.2" width="26.4" height="26.4" fill="#000000" />
<rect x="52.8" y="528" width="26.4" height="26.4" fill="#000000" />
<rect x="52.8" y="554.4" width="26.4" height="26.4" fill="#000000" />
<rect x="52.8" y="580.8" width="26.4" height="26.4" fill="#000000" />
<rect x="52.8" y="633.5999999999999" width="26.4" height="26.4" fill="#000000" />
<rect x="79.19999999999999" y="0" width="26.4" height="26.4" fill="#000000" />
<rect x="79.19999999999999" y="52.8" width="26.4" height="26.4" fill="#000000" />
<rect x="79.19999999999999" y="79.19999999999999" width="26.4" height="26.4" fill="#000000" />
<rect x="79.19999999999999" y="105.6" width="26.4" height="26.4" fill="#000000" />
<rect x="79.19999999999999" y="158.39999999999998" width="26.4" height="26.4" fill="#000000" />
<rect x="79.19999999999999" y="211.2" width="26.4" height="26.4" fill="#000000" />
<rect x="79.19999999999999" y="237.6" width="26.4" height="26.4" fill="#000000" />
<rect x="79.19999999999999" y="369.59999999999997" width="26.4" height="26.4" fill="#000000" />
<rect x="79.19999999999999" y="422.4" width="26.4" height="26.4" fill="#000000" />
<rect x="79.19999999999999" y="475.2" width="26.4" height="26.4" fill="#000000" />
<rect x="79.19999999999999" y="528" width="26.4" height="26.4" fill="#000000" />
<rect x="79.19999999999999" y="554.4" width="26.4" height="26.4" fill="#000000" />
<rect x="79.19999999999999" y="580.8" width="26.4" height="26.4" fill="#000000" />
<rect x="79.19999999999999" y="633.5999999999999" width="26.4" height="26.4" fill="#000000" />
<rect x="105.6" y="0" width="26.4" height="26.4" fill="#000000" />
<rect x="105.6" y="52.8" width="26.4" height="26.4" fill="#000000" />
<rect x="105.6" y="79.19999999999999" width="26.4" height="26.4" fill="#000000" />
<rect x="105.6" y="105.6" width="26.4" height="26.4" fill="#000000" />
<rect x="105.6" y="158.39999999999998" width="26.4" height="26.4" fill="#000000" />
<rect x="105.6" y="237.6" width="26.4" height="26.4" fill="#000000" />
<rect x="105.6" y="264" width="26.4" height="26.4" fill="#000000" />
<rect x="105.6" y="369.59999999999997" width="26.4" height="26.4" fill="#000000" />
<rect x="105.6" y="422.4" width="26.4" height="26.4" fill="#000000" />
<rect x="105.6" y="475.2" width="26.4" height="26.4" fill="#000000" />
<rect x="105.6" y="528" width="26.4" height="26.4" fill="#000000" />
<rect x="105.6" y="554.4" width="26.4" height="26.4" fill="#000000" />
<rect x="105.6" y="580.8" width="26.4" height="26.4" fill="#000000" />
<rect x="105.6" y="633.5999999999999" width="26.4" height="26.4" fill="#000000" />
<rect x="132" y="0" width="26.4" height="26.4" fill="#000000" />
<rect x="132" y="158.39999999999998" width="26.4" height="26.4" fill="#000000" />
<rect x="132" y="237.6" width="26.4" height="26.4" fill="#000000" />
<rect x="132" y="264" width="26.4" height="26.4" fill="#000000" />
<rect x="132" y="290.4" width="26.4" height="26.4" fill="#000000" />
<rect x="132" y="316.79999999999995" width="26.4" height="26.4" fill="#000000" />
<rect x="132" y="343.2" width="26.4" height="26.4" fill="#000000" />
<rect x="132" y="369.59999999999997" width="26.4" height="26.4" fill="#000000" />
<rect x="132" y="422.4" width="26.4" height="26.4" fill="#000000" />
<rect x="132" y="475.2" width="26.4" height="26.4" fill="#000000" />
<rect x="132" y="633.5999999999999" width="26.4" height="26.4" fill="#000000" />
<rect x="158.39999999999998" y="0" width="26.4" height="26.4" fill="#000000" />
<rect x="158.39999999999998" y="26.4" width="26.4" height="26.4" fill="#000000" />
<rect x="158.39999999999998" y="52.8" width="26.4" height="26.4" fill="#000000" />
<rect x="158.39999999999998" y="79.19999999999999" width="26.4" height="26.4" fill="#000000" />
<rect x="158.39999999999998" y="105.6" width="26.4" height="26.4" fill="#000000" />
<rect x="158.39999999999998" y="132" width="26.4" height="26.4" fill="#000000" />
<rect x="158.39999999999998" y="158.39999999999998" width="26.4" height="26.4" fill="#000000" />
<rect x="158.39999999999998" y="211.2" width="26.4" height="26.4" fill="#000000" />
<rect x="158.39999999999998" y="264" width="26.4" height="26.4" fill="#000000" />
<rect x="158.39999999999998" y="316.79999999999995" width="26.4" height="26.4" fill="#000000" />
<rect x="158.39999999999998" y="369.59999999999997" width="26.4" height="26.4" fill="#000000" />
<rect x="158.39999999999998" y="422.4" width="26.4" height="26.4" fill="#000000" />
<rect x="158.39999999999998" y="475.2" width="26.4" height="26.4" fill="#000000" />
<rect x="158.39999999999998" y="501.59999999999997" width="26.4" height="26.4" fill="#000000" />
<rect x="158.39999999999998" y="528" width="26.4" height="26.4" fill="#000000" />
<rect x="158.39999999999998" y="554.4" width="26.4" height="26.4" fill="#000000" />
<rect x="158.39999999999998" y="580.8" width="26.4" height="26.4" fill="#000000" />
<rect x="158.39999999999998" y="607.1999999999999" width="26.4" height="26.4" fill="#000000" />
<rect x="158.39999999999998" y="633.5999999999999" width="26.4" height="26.4" fill="#000000" />
<rect x="184.79999999999998" y="237.6" width="26.4" height="26.4" fill="#000000" />
<rect x="184.79999999999998" y="369.59999999999997" width="26.4" height="26.4" fill="#000000" />
<rect x="211.2" y="0" width="26.4" height="26.4" fill="#000000" />
<rect x="211.2" y="52.8" width="26.4" height="26.4" fill="#000000" />
<rect x="211.2" y="79.19999999999999" width="26.4" height="26.4" fill="#000000" />
<rect x="211.2" y="105.6" width="26.4" height="26.4" fill="#000000" />
<rect x="211.2" y="158.39999999999998" width="26.4" height="26.4" fill="#000000" />
<rect x="211.2" y="211.2" width="26.4" height="26.4" fill="#000000" />
<rect x="211.2" y="237.6" width="26.4" height="26.4" fill="#000000" />
<rect x="211.2" y="264" width="26.4" height="26.4" fill="#000000" />
<rect x="211.2" y="290.4" width="26.4" height="26.4" fill="#000000" />
<rect x="211.2" y="343.2" width="26.4" height="26.4" fill="#000000" />
<rect x="211.2" y="396" width="26.4" height="26.4" fill="#000000" />
<rect x="211.2" y="448.79999999999995" width="26.4" height="26.4" fill="#000000" />
<rect x="211.2" y="554.4" width="26.4" height="26.4" fill="#000000" />
<rect x="211.2" y="580.8" width="26.4" height="26.4" fill="#000000" />
<rect x="211.2" y="607.1999999999999" width="26.4" height="26.4" fill="#000000" />
<rect x="211.2" y="633.5999999999999" width="26.4" height="26.4" fill="#000000" />
<rect x="237.6" y="0" width="26.4" height="26.4" fill="#000000" />
<rect x="237.6" y="79.19999999999999" width="26.4" height="26.4" fill="#000000" />
<rect x="237.6" y="105.6" width="26.4" height="26.4" fill="#000000" />
<rect x="237.6" y="132" width="26.4" height="26.4" fill="#000000" />
<rect x="237.6" y="184.79999999999998" width="26.4" height="26.4" fill="#000000" />
<rect x="237.6" y="237.6" width="26.4" height="26.4" fill="#000000" />
<rect x="237.6" y="316.79999999999995" width="26.4" height="26.4" fill="#000000" />
<rect x="237.6" y="343.2" width="26.4" height="26.4" fill="#000000" />
<rect x="237.6" y="369.59999999999997" width="26.4" height="26.4" fill="#000000" />
<rect x="237.6" y="396" width="26.4" height="26.4" fill="#000000" />
<rect x="237.6" y="422.4" width="26.4" height="26.4" fill="#000000" />
<rect x="237.6" y="528" width="26.4" height="26.4" fill="#000000" />
<rect x="237.6" y="607.1999999999999" width="26.4" height="26.4" fill="#000000" />
<rect x="237.6" y="633.5999999999999" width="26.4" height="26.4" fill="#000000" />
<rect x="264" y="105.6" width="26.4" height="26.4" fill="#000000" />
<rect x="264" y="158.39999999999998" width="26.4" height="26.4" fill="#000000" />
<rect x="264" y="343.2" width="26.4" height="26.4" fill="#000000" />
<rect x="264" y="369.59999999999997" width="26.4" height="26.4" fill="#000000" />
<rect x="264" y="501.59999999999997" width="26.4" height="26.4" fill="#000000" />
<rect x="264" y="554.4" width="26.4" height="26.4" fill="#000000" />
<rect x="264" y="580.8" width="26.4" height="26.4" fill="#000000" />
<rect x="264" y="607.1999999999999" width="26.4" height="26.4" fill="#000000" />
<rect x="290.4" y="52.8" width="26.4" height="26.4" fill="#000000" />
<rect x="290.4" y="79.19999999999999" width="26.4" height="26.4" fill="#000000" />
<rect x="290.4" y="105.6" width="26.4" height="26.4" fill="#000000" />
<rect x="290.4" y="184.79999999999998" width="26.4" height="26.4" fill="#000000" />
<rect x="290.4" y="290.4" width="26.4" height="26.4" fill="#000000" />
<rect x="290.4" y="316.79999999999995" width="26.4" height="26.4" fill="#000000" />
<rect x="290.4" y="343.2" width="26.4" height="26.4" fill="#000000" />
<rect x="290.4" y="396" width="26.4" height="26.4" fill="#000000" />
<rect x="290.4" y="448.79999999999995" width="26.4" height="26.4" fill="#000000" />
<rect x="290.4" y="528" width="26.4" height="26.4" fill="#000000" />
<rect x="290.4" y="554.4" width="26.4" height="26.4" fill="#000000" />
<rect x="290.4" y="580.8" width="26.4" height="26.4" fill="#000000" />
<rect x="290.4" y="633.5999999999999" width="26.4" height="26.4" fill="#000000" />
<rect x="316.79999999999995" y="52.8" width="26.4" height="26.4" fill="#000000" />
<rect x="316.79999999999995" y="132" width="26.4" height="26.4" fill="#000000" />
<rect x="316.79999999999995" y="158.39999999999998" width="26.4" height="26.4" fill="#000000" />
<rect x="316.79999999999995" y="290.4" width="26.4" height="26.4" fill="#000000" />
<rect x="316.79999999999995" y="316.79999999999995" width="26.4" height="26.4" fill="#000000" />
<rect x="316.79999999999995" y="369.59999999999997" width="26.4" height="26.4" fill="#000000" />
<rect x="316.79999999999995" y="501.59999999999997" width="26.4" height="26.4" fill="#000000" />
<rect x="316.79999999999995" y="580.8" width="26.4" height="26.4" fill="#000000" />
<rect x="316.79999999999995" y="633.5999999999999" width="26.4" height="26.4" fill="#000000" />
<rect x="343.2" y="0" width="26.4" height="26.4" fill="#000000" />
<rect x="343.2" y="52.8" width="26.4" height="26.4" fill="#000000" />
<rect x="343.2" y="79.19999999999999" width="26.4" height="26.4" fill="#000000" />
<rect x="343.2" y="132" width="26.4" height="26.4" fill="#000000" />
<rect x="343.2" y="237.6" width="26.4" height="26.4" fill="#000000" />
<rect x="343.2" y="290.4" width="26.4" height="26.4" fill="#000000" />
<rect x="343.2" y="316.79999999999995" width="26.4" height="26.4" fill="#000000" />
<rect x="343.2" y="369.59999999999997" width="26.4" height="26.4" fill="#000000" />
<rect x="343.2" y="422.4" width="26.4" height="26.4" fill="#000000" />
<rect x="343.2" y="448.79999999999995" width="26.4" height="26.4" fill="#000000" />
<rect x="343.2" y="475.2" width="26.4" height="26.4" fill="#000000" />
<rect x="343.2" y="554.4" width="26.4" height="26.4" fill="#000000" />
<rect x="343.2" y="580.8" width="26.4" height="26.4" fill="#000000" />
<rect x="343.2" y="607.1999999999999" width="26.4" height="26.4" fill="#000000" />
<rect x="343.2" y="633.5999999999999" width="26.4" height="26.4" fill="#000000" />
<rect x="369.59999999999997" y="26.4" width="26.4" height="26.4" fill="#000000" />
<rect x="369.59999999999997" y="52.8" width="26.4" height="26.4" fill="#000000" />
<rect x="369.59999999999997" y="79.19999999999999" width="26.4" height="26.4" fill="#000000" />
<rect x="369.59999999999997" y="132" width="26.4" height="26.4" fill="#000000" />
<rect x="369.59999999999997" y="158.39999999999998" width="26.4" height="26.4" fill="#000000" />
<rect x="369.59999999999997" y="184.79999999999998" width="26.4" height="26.4" fill="#000000" />
<rect x="369.59999999999997" y="211.2" width="26.4" height="26.4" fill="#000000" />
<rect x="369.59999999999997" y="264" width="26.4" height="26.4" fill="#000000" />
<rect x="369.59999999999997" y="316.79999999999995" width="26.4" height="26.4" fill="#000000" />
<rect x="369.59999999999997" y="369.59999999999997" width="26.4" height="26.4" fill="#000000" />
<rect x="369.59999999999997" y="396" width="26.4" height="26.4" fill="#000000" />
<rect x="369.59999999999997" y="501.59999999999997" width="26.4" height="26.4" fill="#000000" />
<rect x="369.59999999999997" y="633.5999999999999" width="26.4" height="26.4" fill="#000000" />
<rect x="396" y="52.8" width="26.4" height="26.4" fill="#000000" />
<rect x="396" y="79.19999999999999" width="26.4" height="26.4" fill="#000000" />
<rect x="396" y="105.6" width="26.4" height="26.4" fill="#000000" />
<rect x="396" y="184.79999999999998" width="26.4" height="26.4" fill="#000000" />
<rect x="396" y="211.2" width="26.4" height="26.4" fill="#000000" />
<rect x="396" y="290.4" width="26.4" height="26.4" fill="#000000" />
<rect x="396" y="343.2" width="26.4" height="26.4" fill="#000000" />
<rect x="396" y="448.79999999999995" width="26.4" height="26.4" fill="#000000" />
<rect x="396" y="501.59999999999997" width="26.4" height="26.4" fill="#000000" />
<rect x="396" y="554.4" width="26.4" height="26.4" fill="#000000" />
<rect x="396" y="580.8" width="26.4" height="26.4" fill="#000000" />
<rect x="422.4" y="0" width="26.4" height="26.4" fill="#000000" />
<rect x="422.4" y="26.4" width="26.4" height="26.4" fill="#000000" />
<rect x="422.4" y="105.6" width="26.4" height="26.4" fill="#000000" />
<rect x="422.4" y="132" width="26.4" height="26.4" fill="#000000" />
<rect x="422.4" y="158.39999999999998" width="26.4" height="26.4" fill="#000000" />
<rect x="422.4" y="184.79999999999998" width="26.4" height="26.4" fill="#000000" />
<rect x="422.4" y="211.2" width="26.4" height="26.4" fill="#000000" />
<rect x="422.4" y="343.2" width="26.4" height="26.4" fill="#000000" />
<rect x="422.4" y="369.59999999999997" width="26.4" height="26.4" fill="#000000" />
<rect x="422.4" y="396" width="26.4" height="26.4" fill="#000000" />
<rect x="422.4" y="422.4" width="26.4" height="26.4" fill="#000000" />
<rect x="422.4" y="448.79999999999995" width="26.4" height="26.4" fill="#000000" />
<rect x="422.4" y="475.2" width="26.4" height="26.4" fill="#000000" />
<rect x="422.4" y="501.59999999999997" width="26.4" height="26.4" fill="#000000" />
<rect x="422.4" y="528" width="26.4" height="26.4" fill="#000000" />
<rect x="448.79999999999995" y="211.2" width="26.4" height="26.4" fill="#000000" />
<rect x="448.79999999999995" y="316.79999999999995" width="26.4" height="26.4" fill="#000000" />
<rect x="448.79999999999995" y="369.59999999999997" width="26.4" height="26.4" fill="#000000" />
<rect x="448.79999999999995" y="422.4" width="26.4" height="26.4" fill="#000000" />
<rect x="448.79999999999995" y="528" width="26.4" height="26.4" fill="#000000" />
<rect x="448.79999999999995" y="554.4" width="26.4" height="26.4" fill="#000000" />
<rect x="448.79999999999995" y="580.8" width="26.4" height="26.4" fill="#000000" />
<rect x="448.79999999999995" y="607.1999999999999" width="26.4" height="26.4" fill="#000000" />
<rect x="475.2" y="0" width="26.4" height="26.4" fill="#000000" />
<rect x="475.2" y="26.4" width="26.4" height="26.4" fill="#000000" />
<rect x="475.2" y="52.8" width="26.4" height="26.4" fill="#000000" />
<rect x="475.2" y="79.19999999999999" width="26.4" height="26.4" fill="#000000" />
<rect x="475.2" y="105.6" width="26.4" height="26.4" fill="#000000" />
<rect x="475.2" y="132" width="26.4" height="26.4" fill="#000000" />
<rect x="475.2" y="158.39999999999998" width="26.4" height="26.4" fill="#000000" />
<rect x="475.2" y="290.4" width="26.4" height="26.4" fill="#000000" />
<rect x="475.2" y="316.79999999999995" width="26.4" height="26.4" fill="#000000" />
<rect x="475.2" y="343.2" width="26.4" height="26.4" fill="#000000" />
<rect x="475.2" y="422.4" width="26.4" height="26.4" fill="#000000" />
<rect x="475.2" y="475.2" width="26.4" height="26.4" fill="#000000" />
<rect x="475.2" y="528" width="26.4" height="26.4" fill="#000000" />
<rect x="475.2" y="554.4" width="26.4" height="26.4" fill="#000000" />
<rect x="475.2" y="580.8" width="26.4" height="26.4" fill="#000000" />
<rect x="475.2" y="607.1999999999999" width="26.4" height="26.4" fill="#000000" />
<rect x="475.2" y="633.5999999999999" width="26.4" height="26.4" fill="#000000" />
<rect x="501.59999999999997" y="0" width="26.4" height="26.4" fill="#000000" />
<rect x="501.59999999999997" y="158.39999999999998" width="26.4" height="26.4" fill="#000000" />
<rect x="501.59999999999997" y="237.6" width="26.4" height="26.4" fill="#000000" />
<rect x="501.59999999999997" y="343.2" width="26.4" height="26.4" fill="#000000" />
<rect x="501.59999999999997" y="396" width="26.4" height="26.4" fill="#000000" />
<rect x="501.59999999999997" y="422.4" width="26.4" height="26.4" fill="#000000" />
<rect x="501.59999999999997" y="528" width="26.4" height="26.4" fill="#000000" />
<rect x="501.59999999999997" y="633.5999999999999" width="26.4" height="26.4" fill="#000000" />
<rect x="528" y="0" width="26.4" height="26.4" fill="#000000" />
<rect x="528" y="52.8" width="26.4" height="26.4" fill="#000000" />
<rect x="528" y="79.19999999999999" width="26.4" height="26.4" fill="#000000" />
<rect x="528" y="105.6" width="26.4" height="26.4" fill="#000000" />
<rect x="528" y="158.39999999999998" width="26.4" height="26.4" fill="#000000" />
<rect x="528" y="211.2" width="26.4" height="26.4" fill="#000000" />
<rect x="528" y="264" width="26.4" height="26.4" fill="#000000" />
<rect x="528" y="290.4" width="26.4" height="26.4" fill="#000000" />
<rect x="528" y="316.79999999999995" width="26.4" height="26.4" fill="#000000" />
<rect x="528" y="343.2" width="26.4" height="26.4" fill="#000000" />
<rect x="528" y="369.59999999999997" width="26.4" height="26.4" fill="#000000" />
<rect x="528" y="396" width="26.4" height="26.4" fill="#000000" />
<rect x="528" y="422.4" width="26.4" height="26.4" fill="#000000" />
<rect x="528" y="448.79999999999995" width="26.4" height="26.4" fill="#000000" />
<rect x="528" y="475.2" width="26.4" height="26.4" fill="#000000" />
<rect x="528" y="501.59999999999997" width="26.4" height="26.4" fill="#000000" />
<rect x="528" y="528" width="26.4" height="26.4" fill="#000000" />
<rect x="528" y="554.4" width="26.4" height="26.4" fill="#000000" />
<rect x="528" y="580.8" width="26.4" height="26.4" fill="#000000" />
<rect x="528" y="607.1999999999999" width="26.4" height="26.4" fill="#000000" />
<rect x="528" y="633.5999999999999" width="26.4" height="26.4" fill="#000000" />
<rect x="554.4" y="0" width="26.4" height="26.4" fill="#000000" />
<rect x="554.4" y="52.8" width="26.4" height="26.4" fill="#000000" />
<rect x="554.4" y="79.19999999999999" width="26.4" height="26.4" fill="#000000" />
<rect x="554.4" y="105.6" width="26.4" height="26.4" fill="#000000" />
<rect x="554.4" y="158.39999999999998" width="26.4" height="26.4" fill="#000000" />
<rect x="554.4" y="211.2" width="26.4" height="26.4" fill="#000000" />
<rect x="554.4" y="290.4" width="26.4" height="26.4" fill="#000000" />
<rect x="554.4" y="422.4" width="26.4" height="26.4" fill="#000000" />
<rect x="554.4" y="528" width="26.4" height="26.4" fill="#000000" />
<rect x="554.4" y="554.4" width="26.4" height="26.4" fill="#000000" />
<rect x="554.4" y="633.5999999999999" width="26.4" height="26.4" fill="#000000" />
<rect x="580.8" y="0" width="26.4" height="26.4" fill="#000000" />
<rect x="580.8" y="52.8" width="26.4" height="26.4" fill="#000000" />
<rect x="580.8" y="79.19999999999999" width="26.4" height="26.4" fill="#000000" />
<rect x="580.8" y="105.6" width="26.4" height="26.4" fill="#000000" />
<rect x="580.8" y="158.39999999999998" width="26.4" height="26.4" fill="#000000" />
<rect x="580.8" y="211.2" width="26.4" height="26.4" fill="#000000" />
<rect x="580.8" y="290.4" width="26.4" height="26.4" fill="#000000" />
<rect x="580.8" y="316.79999999999995" width="26.4" height="26.4" fill="#000000" />
<rect x="580.8" y="369.59999999999997" width="26.4" height="26.4" fill="#000000" />
<rect x="580.8" y="422.4" width="26.4" height="26.4" fill="#000000" />
<rect x="580.8" y="448.79999999999995" width="26.4" height="26.4" fill="#000000" />
<rect x="580.8" y="475.2" width="26.4" height="26.4" fill="#000000" />
<rect x="580.8" y="554.4" width="26.4" height="26.4" fill="#000000" />
<rect x="580.8" y="580.8" width="26.4" height="26.4" fill="#000000" />
<rect x="580.8" y="607.1999999999999" width="26.4" height="26.4" fill="#000000" />
<rect x="580.8" y="633.5999999999999" width="26.4" height="26.4" fill="#000000" />
<rect x="607.1999999999999" y="0" width="26.4" height="26.4" fill="#000000" />
<rect x="607.1999999999999" y="158.39999999999998" width="26.4" height="26.4" fill="#000000" />
<rect x="607.1999999999999" y="237.6" width="26.4" height="26.4" fill="#000000" />
<rect x="607.1999999999999" y="316.79999999999995" width="26.4" height="26.4" fill="#000000" />
<rect x="607.1999999999999" y="369.59999999999997" width="26.4" height="26.4" fill="#000000" />
<rect x="607.1999999999999" y="422.4" width="26.4" height="26.4" fill="#000000" />
<rect x="607.1999999999999" y="475.2" width="26.4" height="26.4" fill="#000000" />
<rect x="607.1999999999999" y="501.59999999999997" width="26.4" height="26.4" fill="#000000" />
<rect x="607.1999999999999" y="554.4" width="26.4" height="26.4" fill="#000000" />
<rect x="607.1999999999999" y="580.8" width="26.4" height="26.4" fill="#000000" />
<rect x="607.1999999999999" y="633.5999999999999" width="26.4" height="26.4" fill="#000000" />
<rect x="633.5999999999999" y="0" width="26.4" height="26.4" fill="#000000" />
<rect x="633.5999999999999" y="26.4" width="26.4" height="26.4" fill="#000000" />
<rect x="633.5999999999999" y="52.8" width="26.4" height="26.4" fill="#000000" />
<rect x="633.5999999999999" y="79.19999999999999" width="26.4" height="26.4" fill="#000000" />
<rect x="633.5999999999999" y="105.6" width="26.4" height="26.4" fill="#000000" />
<rect x="633.5999999999999" y="132" width="26.4" height="26.4" fill="#000000" />
<rect x="633.5999999999999" y="158.39999999999998" width="26.4" height="26.4" fill="#000000" />
<rect x="633.5999999999999" y="211.2" width="26.4" height="26.4" fill="#000000" />
<rect x="633.5999999999999" y="316.79999999999995" width="26.4" height="26.4" fill="#000000" />
<rect x="633.5999999999999" y="343.2" width="26.4" height="26.4" fill="#000000" />
<rect x="633.5999999999999" y="396" width="26.4" height="26.4" fill="#000000" />
<rect x="633.5999999999999" y="422.4" width="26.4" height="26.4" fill="#000000" />
<rect x="633.5999999999999" y="448.79999999999995" width="26.4" height="26.4" fill="#000000" />
<rect x="633.5999999999999" y="475.2" width="26.4" height="26.4" fill="#000000" />
<rect x="633.5999999999999" y="501.59999999999997" width="26.4" height="26.4" fill="#000000" />
<rect x="633.5999999999999" y="528" width="26.4" height="26.4" fill="#000000" />
<rect x="633.5999999999999" y="554.4" width="26.4" height="26.4" fill="#000000" />
<rect x="633.5999999999999" y="633.5999999999999" width="26.4" height="26.4" fill="#000000" />
</svg>
